<?xml version="1.0" encoding="utf-8"?>
<!-- Generator: Adobe Illustrator 16.0.0, SVG Export Plug-In . SVG Version: 6.00 Build 0)  -->
<!DOCTYPE svg PUBLIC "-//W3C//DTD SVG 1.1//EN" "http://www.w3.org/Graphics/SVG/1.1/DTD/svg11.dtd">
<svg version="1.1" id="Camada_1" xmlns="http://www.w3.org/2000/svg" xmlns:xlink="http://www.w3.org/1999/xlink" x="0px" y="0px"
	 width="185.227px" height="46.914px" viewBox="0 0 185.227 46.914" enable-background="new 0 0 185.227 46.914"
	 xml:space="preserve">
<path fill="#F2E400" d="M83.316,24.307c0-0.006,0-0.009-0.001-0.015c0.001-0.004,0.001-0.008,0.001-0.013
	c-0.001-0.003-0.003-0.007-0.004-0.01c-0.007-0.032-0.022-0.062-0.043-0.087c-0.012-0.015-0.025-0.035-0.044-0.061
	c-0.462-0.617-2.842-2.554-5.204-2.967c-0.033-0.005-0.064,0.007-0.094,0.024c-0.054,0.033-0.09,0.093-0.088,0.16l0.003,2.954
	l-0.003,2.956c-0.002,0.065,0.034,0.126,0.088,0.159c0.03,0.016,0.061,0.031,0.094,0.025c2.362-0.414,4.741-2.35,5.204-2.968
	c0.02-0.027,0.033-0.045,0.044-0.061c0.021-0.024,0.036-0.055,0.043-0.085C83.313,24.313,83.315,24.31,83.316,24.307"/>
<path fill="#0077B2" d="M70.844,33.067h-5.057l-2.836-14.365h-0.077l-2.642,14.365H55.29c-1.879-6.358-3.488-13.14-4.559-19.654
	h4.48c0.769,5.211,1.725,10.385,2.761,15.479h0.038l2.949-15.479h4.483l3.065,15.479h0.038c1.108-5.21,1.992-10.384,2.526-15.479
	h4.177C74.178,19.966,72.681,26.515,70.844,33.067"/>
<path fill="#0077B2" d="M101.108,24.103H90.802c0,3.792,1.036,6.015,4.102,6.015c2.028,0,3.6-0.384,5.287-0.92l0.46,3.295
	c-1.878,0.652-4.025,1.072-6.361,1.072c-5.325,0-7.93-3.372-7.93-10.191c0-6.473,2.72-10.458,7.892-10.458
	c4.98,0,6.896,3.372,6.896,9.042C101.148,22.417,101.108,23.374,101.108,24.103 M94.099,16.019c-2.376,0-3.218,2.528-3.334,5.134
	h6.167C97.01,17.973,96.052,16.019,94.099,16.019"/>
<path fill="#0077B2" d="M114.825,33.067V21.038c0-2.873-0.576-4.559-2.375-4.559c-1.265,0-2.223,0.843-3.602,2.873v13.715h-4.29
	V13.413h3.293l0.347,2.568c1.455-1.993,3.063-3.066,5.362-3.066c3.907,0,5.557,3.143,5.557,7.279v12.872H114.825z"/>
<path fill="#0077B2" d="M136.931,24.103h-10.308c0,3.792,1.035,6.015,4.101,6.015c2.028,0,3.6-0.384,5.287-0.92l0.46,3.295
	c-1.878,0.652-4.025,1.072-6.361,1.072c-5.324,0-7.929-3.372-7.929-10.191c0-6.473,2.72-10.458,7.892-10.458
	c4.98,0,6.896,3.372,6.896,9.042C136.968,22.417,136.931,23.374,136.931,24.103 M129.919,16.019c-2.376,0-3.218,2.528-3.334,5.134
	h6.167C132.831,17.973,131.873,16.019,129.919,16.019"/>
<path fill="#0077B2" d="M149.38,17.246c-0.613-0.229-1.111-0.345-1.532-0.345c-0.881,0-1.609,0.92-3.179,3.372v12.795h-4.292V13.414
	h3.293l0.386,3.256c1.53-2.681,2.45-3.754,4.099-3.754c0.574,0,1.149,0.116,1.724,0.307L149.38,17.246z"/>
<path fill="#0077B2" d="M158.461,41.302c-1.571,0-3.374-0.151-4.945-0.458l0.156-3.142c1.455,0.114,3.023,0.153,4.482,0.153
	c2.986,0,4.022-1.073,4.022-5.096v-2.106c-1.34,1.8-2.758,2.604-4.752,2.604c-4.251,0-6.054-4.25-6.054-9.422
	c0-6.093,2.566-10.805,8.583-10.805c2.069,0,4.636,0.537,6.514,1.227v18.235C166.468,38.738,163.824,41.302,158.461,41.302
	 M162.177,17.092c-0.767-0.384-1.609-0.575-2.529-0.575c-2.529,0-3.794,2.529-3.794,6.857c0,3.373,0.538,6.321,2.799,6.321
	c1.11,0,1.915-0.535,3.524-2.872V17.092z"/>
<path fill="#0077B2" d="M178.956,33.067c-2.604,6.589-4.749,8.237-7.547,8.237c-0.843,0-1.685-0.152-2.22-0.382l0.15-3.143h1.8
	c1.189,0,1.916-0.919,3.221-4.56c-2.068-5.439-4.101-12.871-5.402-19.807h4.482c0.92,5.327,2.106,10.23,3.409,15.018h0.078
	c1.148-4.595,2.182-9.959,2.833-15.018h4.254C182.365,22.227,180.718,28.663,178.956,33.067"/>
<path fill="#0077B2" d="M22.817,44.825C10.979,45.033,1.212,35.608,1,23.768C0.793,11.929,10.219,2.162,22.059,1.951
	c11.84-0.209,21.605,9.219,21.816,21.057C44.085,34.846,34.656,44.617,22.817,44.825"/>
<path fill="#13A438" d="M25.866,40.571c-9.487,0.168-17.317-7.39-17.486-16.878c-0.168-9.49,7.389-17.318,16.877-17.486
	c9.49-0.168,17.319,7.389,17.488,16.877C42.911,32.574,35.354,40.403,25.866,40.571"/>
<path fill="#AEC90B" d="M28.592,36.849c-7.268,0.129-13.267-5.794-13.398-13.229c-0.132-7.433,5.652-13.564,12.921-13.693
	c7.27-0.129,13.267,5.792,13.401,13.228C41.646,30.589,35.859,36.72,28.592,36.849"/>
<path fill="#F2E400" d="M46.857,23.427c0-0.014-0.001-0.025-0.003-0.039c0.001-0.014,0.003-0.027,0.003-0.039
	c-0.004-0.013-0.009-0.021-0.012-0.034c-0.02-0.096-0.065-0.184-0.131-0.256c-0.031-0.048-0.074-0.104-0.133-0.184
	c-1.376-1.841-8.475-7.616-15.512-8.849c-0.096-0.016-0.192,0.025-0.274,0.073c-0.169,0.099-0.272,0.28-0.272,0.476l0.007,8.813
	l-0.007,8.813c0,0.193,0.103,0.376,0.272,0.475c0.083,0.048,0.179,0.09,0.274,0.072c7.038-1.232,14.136-7.009,15.512-8.848
	c0.06-0.081,0.102-0.136,0.133-0.184c0.066-0.072,0.111-0.161,0.131-0.256C46.848,23.449,46.853,23.438,46.857,23.427"/>
</svg>
